<?xml version="1.0" encoding="utf-8"?>
<!-- Generator: Adobe Illustrator 26.1.0, SVG Export Plug-In . SVG Version: 6.00 Build 0)  -->
<svg version="1.1" id="Layer_1" xmlns="http://www.w3.org/2000/svg" xmlns:xlink="http://www.w3.org/1999/xlink" x="0px" y="0px"
	 viewBox="0 0 16 16" style="enable-background:new 0 0 16 16;" xml:space="preserve">
<style type="text/css">
	.st0{fill-rule:evenodd;clip-rule:evenodd;}
</style>
<path class="st0" d="M8.2,6.9v2.7h4.5c-0.2,1.2-1.4,3.5-4.5,3.5c-2.7,0-5-2.3-5-5.1s2.2-5.1,5-5.1c1.6,0,2.6,0.7,3.2,1.2l2.2-2.1
	C12.1,0.8,10.3,0,8.2,0c-4.4,0-8,3.6-8,8s3.6,8,8,8c4.6,0,7.7-3.2,7.7-7.8c0-0.5-0.1-0.9-0.1-1.3C15.7,6.9,8.2,6.9,8.2,6.9z"/>
</svg>
