<?xml version="1.0" standalone="no"?>
<!DOCTYPE svg PUBLIC "-//W3C//DTD SVG 20010904//EN"
 "http://www.w3.org/TR/2001/REC-SVG-20010904/DTD/svg10.dtd">
<svg version="1.0" xmlns="http://www.w3.org/2000/svg"
 width="700.000000pt" height="700.000000pt" viewBox="0 0 700.000000 700.000000"
 preserveAspectRatio="xMidYMid meet">
<metadata>
Created by potrace 1.14, written by Peter Selinger 2001-2017
</metadata>
<g transform="translate(0.000000,700.000000) scale(0.100000,-0.100000)"
fill="#000000" stroke="none">
<path d="M5017 4700 c-234 -37 -413 -120 -562 -262 -152 -143 -254 -333 -313
-580 -25 -105 -27 -128 -27 -338 0 -236 7 -302 51 -469 91 -350 326 -586 671
-674 79 -20 112 -22 313 -22 247 1 328 13 526 76 l94 30 0 204 0 204 -57 -20
c-177 -62 -444 -105 -575 -95 -203 17 -343 106 -431 274 -64 123 -97 285 -97
482 0 367 116 627 328 733 170 85 383 68 666 -54 54 -23 99 -39 101 -37 2 2
38 91 79 197 l75 193 -72 33 c-100 45 -211 82 -320 106 -106 23 -358 33 -450
19z"/>
<path d="M1180 3530 l0 -1150 216 0 216 0 -5 763 c-3 419 -10 823 -16 897 -8
127 -8 150 4 138 3 -2 128 -407 279 -899 l274 -894 224 -3 224 -2 57 172 c31
95 164 500 294 901 131 400 242 727 246 727 5 0 6 -24 3 -52 -4 -29 -9 -434
-12 -900 l-6 -848 226 0 226 0 0 1150 0 1150 -335 0 -334 0 -165 -502 c-90
-277 -219 -671 -286 -876 -67 -205 -125 -370 -128 -367 -4 4 -126 396 -273
873 l-266 867 -331 3 -332 2 0 -1150z"/>
</g>
</svg>
