<svg id="Layer_1" data-name="Layer 1" xmlns="http://www.w3.org/2000/svg" viewBox="0 0 100 100"><defs><style>.cls-1{fill:#fff;}</style></defs><path class="cls-1" d="M0,0V100H100V0ZM51.9,66H45.41V50.42c0-.73,0-1.58,0-2.54s.12-3.5.3-7.64h-.2L37.07,66H30.69L22.79,40.2h-.2Q23,48.06,23,50.69V66H16.79V33.12h9.48L34,58.23h.14l8.24-25.11H51.9Zm22.21-5.34a26.14,26.14,0,0,0,8.38-1.73v5.84a23.36,23.36,0,0,1-9,1.68q-7.17,0-11-4.35T58.7,49.59a20.29,20.29,0,0,1,1.87-9,13.52,13.52,0,0,1,5.35-5.9,15.86,15.86,0,0,1,8.19-2.06A22,22,0,0,1,83.72,35l-2.24,5.66a34.54,34.54,0,0,0-3.71-1.53,10.88,10.88,0,0,0-3.66-.65A7.1,7.1,0,0,0,68,41.4q-2.14,3-2.15,8.23Q65.87,60.61,74.11,60.62Z"/></svg>